# xmcd
#
# Track frame offsets:
#	150
#	18107
#	30667
#	43510
#	63514
#	75422
#	85095
#	98490
#	114327
#	127117
#	140932
#	153934
#	165945
#	180735
#
# Disc length: 2566 seconds
#
# Revision: 2
# Processed by: cddbd v1.5.2PL0 Copyright (c) Steve Scherf et al.
# Submitted via: EasyCDDAExtractor 11.0.2.1
#
DISCID=a30a040e
DTITLE=Various Artist - Raízes Do Sertão - Vol. 2
DYEAR=2001
DGENRE=Sertanejo
TTITLE0=Carreiro e Carreirinho - A Morte do Carreiro
TTITLE1=Pedro Bento e Zé Da Estrada - Ladrão de Beijos
TTITLE2=Zico e Zeca - A Enxada e a Caneta
TTITLE3=Cascatinha e Inhana - Jamais Terei Ilusão
TTITLE4=Caçula e Marinheiro - Casinha Pequenina
TTITLE5=Mococa e Moraci - Alma de Boêmio
TTITLE6=Tibagi e Miltinho - Beijinho Doce
TTITLE7=Nestor e Nestorzinho - Paineira Véia
TTITLE8=Tibagi E Miltinho - Pé de Cedro
TTITLE9=Liu e Léu - Saudade de Minha Terra
TTITLE10=Chitãozinho e Xororó - Moreninha Linda
TTITLE11=Tonico e Tinoco - Hoje é Meu Aniversário
TTITLE12=Zé Carreiro e Carreirinho - Canoeiro
TTITLE13=Zilo e Zalo - Arrependimento
EXTD=
EXTT0=
EXTT1=
EXTT2=
EXTT3=
EXTT4=
EXTT5=
EXTT6=
EXTT7=
EXTT8=
EXTT9=
EXTT10=
EXTT11=
EXTT12=
EXTT13=
PLAYORDER=
